<?xml version="1.0" standalone="no"?>
<!DOCTYPE svg PUBLIC "-//W3C//DTD SVG 20010904//EN"
 "http://www.w3.org/TR/2001/REC-SVG-20010904/DTD/svg10.dtd">
<svg version="1.0" xmlns="http://www.w3.org/2000/svg"
 width="398.000000pt" height="410.000000pt" viewBox="0 0 398.000000 410.000000"
 preserveAspectRatio="xMidYMid meet">

<g transform="translate(0.000000,410.000000) scale(0.100000,-0.100000)"
fill="#000000" stroke="none">
<path d="M2170 3193 c-33 -12 -61 -50 -76 -100 -8 -29 -19 -53 -23 -53 -5 0
-26 7 -47 16 -57 24 -129 32 -187 22 -105 -19 -178 -85 -238 -213 -28 -59 -33
-82 -37 -169 -5 -126 8 -198 54 -293 34 -72 118 -173 142 -173 7 0 12 12 12
28 0 15 3 43 6 63 l6 37 59 -47 c57 -45 59 -47 59 -96 0 -76 -8 -95 -39 -95
-49 0 -131 -30 -166 -61 -20 -18 -42 -51 -52 -80 l-18 -49 -375 -2 c-326 -1
-352 -2 -195 -9 99 -3 268 -7 376 -8 165 -1 198 -3 203 -16 8 -23 724 -23 732
0 5 12 36 15 183 16 97 1 255 5 351 8 154 7 133 8 -181 9 l-356 2 -6 36 c-13
77 -94 140 -200 153 l-52 6 -3 67 -3 66 44 31 c78 53 129 125 157 218 8 24 20
43 31 46 25 7 52 106 52 192 -1 71 -19 133 -50 167 -14 16 -13 20 11 48 34 41
41 73 27 120 -22 75 -134 137 -201 113z m-78 -394 c21 -17 62 -66 90 -108 28
-42 64 -90 80 -107 l28 -30 -22 -62 c-48 -133 -144 -213 -257 -213 -72 -1
-130 24 -179 74 l-32 33 29 76 c36 91 81 183 128 258 33 51 81 110 91 110 2 0
22 -14 44 -31z"/>
<path d="M425 1850 c83 -4 468 -13 857 -20 561 -10 850 -10 1405 0 1197 21
1055 27 -707 27 -938 0 -1637 -4 -1555 -7z"/>
<path d="M1565 1673 c-72 -4 -94 -12 -95 -35 0 -3 13 -11 29 -16 16 -6 34 -19
39 -29 6 -10 40 -119 76 -243 37 -123 69 -226 71 -228 3 -3 23 -1 46 4 l42 9
91 239 c74 194 95 240 114 247 13 5 22 17 22 29 0 18 -7 20 -90 22 -49 1 -98
2 -107 2 -11 1 -19 -8 -21 -21 -3 -20 1 -23 26 -23 45 0 62 -10 62 -34 0 -11
-22 -84 -49 -161 -72 -206 -73 -207 -82 -198 -12 13 -98 355 -92 370 3 7 19
17 37 21 21 6 32 15 34 30 3 20 -1 22 -35 20 -21 -1 -74 -4 -118 -5z"/>
<path d="M2192 1666 c-130 -43 -206 -182 -182 -333 26 -157 142 -231 324 -205
115 17 119 21 117 118 -1 55 3 88 14 108 8 15 15 32 15 37 0 5 -45 9 -100 9
l-100 0 0 -29 c0 -28 3 -30 43 -33 l42 -3 3 -66 3 -67 -50 -12 c-61 -14 -102
-7 -142 27 -40 34 -58 72 -70 145 -14 85 3 162 45 204 38 38 104 58 160 49 55
-8 76 -30 76 -77 0 -37 2 -39 27 -36 29 3 35 16 47 104 8 64 7 64 -129 70 -69
3 -113 0 -143 -10z"/>
<path d="M1330 959 c-289 -3 -637 -10 -775 -15 l-250 -9 400 -6 c827 -13 2928
-8 2913 7 -6 5 -960 24 -1353 27 -225 1 -646 0 -935 -4z"/>
<path d="M1070 870 c-118 -3 287 -6 900 -6 613 0 1007 3 875 7 -281 7 -1464 7
-1775 -1z"/>
</g>
</svg>
