<?xml version="1.0" standalone="no"?>
<!DOCTYPE svg PUBLIC "-//W3C//DTD SVG 20010904//EN"
 "http://www.w3.org/TR/2001/REC-SVG-20010904/DTD/svg10.dtd">
<svg version="1.0" xmlns="http://www.w3.org/2000/svg"
 width="1080.000000pt" height="1080.000000pt" viewBox="0 0 1080.000000 1080.000000"
 preserveAspectRatio="xMidYMid meet">

<g transform="translate(0.000000,1080.000000) scale(0.100000,-0.100000)"
fill="#000000" stroke="none">
<path d="M4480 8080 c-671 -24 -1078 -125 -1326 -329 -90 -74 -161 -169 -223
-296 -153 -311 -206 -690 -218 -1557 l-6 -458 99 0 c279 0 853 35 1082 65 528
69 868 241 1105 556 248 331 336 751 362 1744 3 121 8 235 11 253 l5 32 -343
-2 c-189 -1 -435 -4 -548 -8z"/>
<path d="M5435 7908 c17 -505 44 -880 81 -1108 80 -509 295 -857 664 -1074
304 -180 681 -247 1568 -279 l332 -12 0 390 c0 927 -66 1373 -251 1701 -60
107 -196 245 -304 306 -333 192 -731 250 -1743 257 l-353 2 6 -183z"/>
<path d="M2713 4909 c9 -612 32 -910 93 -1186 117 -529 346 -774 844 -898 300
-75 674 -105 1342 -105 l377 0 -4 78 c-3 42 -10 205 -16 362 -21 596 -64 928
-154 1196 -119 357 -361 633 -688 784 -306 141 -703 198 -1586 226 l-214 7 6
-464z"/>
<path d="M7795 5363 c-743 -29 -1069 -67 -1342 -159 -436 -146 -735 -455 -870
-899 -85 -280 -120 -618 -149 -1402 l-6 -183 373 0 c1010 0 1460 74 1782 292
243 165 388 477 452 973 30 238 36 358 42 868 l6 517 -109 -2 c-60 -1 -140 -3
-179 -5z"/>
</g>
</svg>
